<svg id="Capa_1" data-name="Capa 1" xmlns="http://www.w3.org/2000/svg" viewBox="0 0 301 301"><defs><style>.cls-1,.cls-2,.cls-3{fill:#031051;}.cls-1{stroke:#1d1d1b;}.cls-1,.cls-2{stroke-miterlimit:10;}.cls-2{stroke:#fff;stroke-width:16px;}.cls-4{fill:#fff;}</style></defs><rect class="cls-1" x="0.5" y="0.5" width="300" height="300"/><rect class="cls-2" x="59.92" y="53.21" width="194.58" height="194.58"/><rect class="cls-3" x="28.1" y="90.47" width="155.02" height="126.65"/><path class="cls-4" d="M78.49,96.54V177q0,15.76-9.36,24.72T41.37,210.7H37.92V193.12H41.2q9,0,13.64-3.94t4.6-12.65V113.46H41.7V96.54Z" transform="translate(0.5 0.5)"/><path class="cls-4" d="M92.74,181.56V78.05h32.55q27.49,0,41.22,12.6t13.71,37.86q0,24-15.16,38.54t-40.35,14.51Zm17.54-88.64v73.85h13.57q17.82,0,27.86-10t10-27.93q0-17.4-9.56-26.64t-28-9.24Z" transform="translate(0.5 0.5)"/></svg>